<?xml version="1.0" standalone="no"?>
<!DOCTYPE svg PUBLIC "-//W3C//DTD SVG 20010904//EN"
 "http://www.w3.org/TR/2001/REC-SVG-20010904/DTD/svg10.dtd">
<svg version="1.0" xmlns="http://www.w3.org/2000/svg"
 width="512.000000pt" height="512.000000pt" viewBox="0 0 512.000000 512.000000"
 preserveAspectRatio="xMidYMid meet">

<g transform="translate(0.000000,512.000000) scale(0.100000,-0.100000)"
fill="#ff6200" stroke="none">
<path d="M2275 4613 c-60 -8 -169 -30 -241 -48 -378 -97 -653 -254 -942 -537
-344 -336 -551 -750 -618 -1233 -21 -157 -15 -447 15 -620 70 -409 268 -796
565 -1102 54 -57 102 -103 106 -103 4 0 24 44 45 98 137 352 377 755 687 1151
32 40 58 77 58 82 0 4 -15 13 -34 19 -87 28 -180 158 -207 287 -12 63 -7 183
11 246 l11 38 58 -54 c85 -78 328 -234 305 -195 -4 7 -33 47 -64 88 -165 219
-244 375 -297 587 -25 97 -28 126 -27 278 0 140 4 187 22 265 42 179 146 354
272 459 62 52 129 96 135 89 3 -2 -16 -38 -42 -79 -120 -192 -193 -418 -193
-593 0 -96 21 -189 64 -281 36 -77 36 -77 58 -61 38 28 141 74 183 81 22 4 43
9 47 11 3 2 0 28 -8 57 -44 165 9 391 131 562 43 60 184 199 193 190 3 -2 -14
-41 -36 -87 -103 -215 -146 -443 -108 -583 21 -82 33 -98 67 -91 16 3 84 8
151 11 68 3 142 8 166 11 l42 5 -18 27 c-53 75 -54 183 -3 286 31 63 102 156
139 182 21 14 20 13 -3 -39 -14 -30 -34 -89 -45 -132 -52 -203 4 -305 168
-305 75 0 227 34 302 68 24 12 46 19 49 17 11 -11 -27 -70 -66 -105 -91 -79
-259 -123 -548 -140 -282 -18 -422 -43 -524 -94 -109 -56 -160 -127 -161 -225
0 -75 43 -153 135 -239 206 -196 566 -355 1070 -471 118 -27 192 -65 216 -111
42 -78 7 -202 -72 -260 -51 -36 -112 -56 -354 -111 -162 -37 -349 -87 -461
-124 -130 -43 -418 -194 -401 -211 2 -2 29 5 61 17 79 27 272 76 334 85 l51 7
-29 -54 c-43 -80 -88 -199 -118 -313 -24 -91 -27 -118 -27 -276 0 -165 2 -179
28 -253 48 -137 113 -215 229 -273 l73 -37 90 11 c168 21 341 75 524 162 632
305 1085 945 1160 1642 16 140 13 398 -4 531 -66 501 -335 991 -725 1320 -308
259 -681 423 -1075 472 -149 19 -424 18 -570 -2z"/>
</g>
</svg>
